<?xml version="1.0" encoding="UTF-8" standalone="no"?>
<svg
   xmlns:dc="http://purl.org/dc/elements/1.1/"
   xmlns:cc="http://creativecommons.org/ns#"
   xmlns:rdf="http://www.w3.org/1999/02/22-rdf-syntax-ns#"
   xmlns:svg="http://www.w3.org/2000/svg"
   xmlns="http://www.w3.org/2000/svg"
   xmlns:sodipodi="http://sodipodi.sourceforge.net/DTD/sodipodi-0.dtd"
   xmlns:inkscape="http://www.inkscape.org/namespaces/inkscape"
   sodipodi:docname="logo.svg"
   inkscape:version="1.0 (4035a4fb49, 2020-05-01)"
   id="svg8"
   version="1.1"
   viewBox="0 0 3287.0652 3574.9493"
   height="3574.9492mm"
   width="3287.0652mm"
   inkscape:export-filename="/home/racoon/Documents/Inkscape/logoM.png"
   inkscape:export-xdpi="96.538498"
   inkscape:export-ydpi="96.538498">
  <defs
     id="defs2" />
  <sodipodi:namedview
     fit-margin-bottom="0"
     fit-margin-right="0"
     fit-margin-left="0"
     fit-margin-top="0"
     width="1647mm"
     units="mm"
     inkscape:window-maximized="1"
     inkscape:window-y="0"
     inkscape:window-x="0"
     inkscape:window-height="714"
     inkscape:window-width="1366"
     inkscape:pagecheckerboard="true"
     showgrid="false"
     inkscape:document-rotation="0"
     inkscape:current-layer="layer6"
     inkscape:document-units="mm"
     inkscape:cy="5398.1191"
     inkscape:cx="15552.718"
     inkscape:zoom="0.02"
     inkscape:pageshadow="2"
     inkscape:pageopacity="0.0"
     borderopacity="1.0"
     bordercolor="#666666"
     pagecolor="#ffffff"
     id="base" />
  <metadata
     id="metadata5">
    <rdf:RDF>
      <cc:Work
         rdf:about="">
        <dc:format>image/svg+xml</dc:format>
        <dc:type
           rdf:resource="http://purl.org/dc/dcmitype/StillImage" />
        <dc:title />
      </cc:Work>
    </rdf:RDF>
  </metadata>
  <g
     transform="translate(4728.6724,-2.2305367)"
     inkscape:label="dasar bgt"
     id="layer6"
     inkscape:groupmode="layer">
    <path
       id="path1318"
       d="m -3091.8256,2228.0384 c 0,0 45.0575,39.911 67.0142,136.6586"
       style="fill:#f1e9de;fill-opacity:1;stroke:#000000;stroke-width:9.05672px;stroke-linecap:butt;stroke-linejoin:miter;stroke-opacity:1" />
    <text
       xml:space="preserve"
       style="font-size:258.419px;line-height:1.1;font-family:'Roman SD';-inkscape-font-specification:'Roman SD';stroke-width:5.38379"
       x="-4187.2666"
       y="3178.5476"
       id="text860"><tspan
         sodipodi:role="line"
         id="tspan858"
         x="-4187.2666"
         y="3178.5476"
         style="stroke-width:5.38379">SAPERE</tspan></text>
    <text
       id="text860-4"
       y="3163.9612"
       x="-2923.4644"
       style="font-size:258.419px;line-height:1.1;font-family:'Roman SD';-inkscape-font-specification:'Roman SD';stroke-width:5.38379"
       xml:space="preserve"><tspan
         style="stroke-width:5.38379"
         y="3163.9612"
         x="-2923.4644"
         id="tspan858-8"
         sodipodi:role="line">AUDE</tspan></text>
    <text
       xml:space="preserve"
       style="font-size:869.446px;line-height:1.1;font-family:'PAC LIBERTAS';-inkscape-font-specification:'PAC LIBERTAS';stroke-width:9.05672"
       x="3998.0752"
       y="4225.4062"
       id="text904"><tspan
         sodipodi:role="line"
         id="tspan902"
         x="3998.0752"
         y="4225.4062"
         style="font-size:869.446px;stroke-width:9.05672">Pusat</tspan><tspan
         sodipodi:role="line"
         x="3998.0752"
         y="5181.7969"
         style="font-size:869.446px;stroke-width:9.05672"
         id="tspan906">Penerangan</tspan><tspan
         sodipodi:role="line"
         x="3998.0752"
         y="6138.1875"
         style="font-size:869.446px;stroke-width:9.05672"
         id="tspan908">hC</tspan></text>
    <text
       xml:space="preserve"
       style="font-size:22.5778px;line-height:1.1;font-family:'PAC LIBERTAS';-inkscape-font-specification:'PAC LIBERTAS';stroke-width:0.264583"
       x="135.66605"
       y="260.18799"
       id="text912"><tspan
         sodipodi:role="line"
         id="tspan910"
         x="135.66605"
         y="260.18799"
         style="font-size:22.5778px;stroke-width:0.264583" /></text>
    <text
       xml:space="preserve"
       style="font-style:normal;font-variant:normal;font-weight:normal;font-stretch:normal;font-size:869.446px;line-height:1.1;font-family:'Roman SD';-inkscape-font-specification:'Roman SD';stroke-width:9.05672"
       x="5778.5298"
       y="3202.5691"
       id="text924"><tspan
         sodipodi:role="line"
         id="tspan922"
         x="5778.5298"
         y="3202.5691"
         style="font-style:normal;font-variant:normal;font-weight:normal;font-stretch:normal;font-size:869.446px;font-family:'Roman SD';-inkscape-font-specification:'Roman SD';stroke-width:9.05672">32</tspan></text>
  </g>
  <g
     transform="translate(4728.6724,-2.2305367)"
     inkscape:label="x"
     id="layer8"
     inkscape:groupmode="layer">
    <path
       sodipodi:nodetypes="cccscsc"
       id="path1258"
       d="m -4081.4301,751.77712 c 0,0 639.6407,77.45749 1010.9676,-361.14757 0,0 585.6032,669.99575 1051.3786,404.76249 0,0 127.0466,746.85556 -274.0452,1447.79116 -151.1824,264.2021 -485.5705,494.8309 -797.0575,626.0198 0,0 -405.8322,-80.3835 -690.0725,-454.2779 -284.2403,-373.8946 -356.8225,-854.0133 -301.171,-1663.14798 z"
       style="opacity:1;fill:none;stroke:#784421;stroke-width:46.724;stroke-linecap:butt;stroke-linejoin:miter;stroke-miterlimit:4;stroke-dasharray:none;stroke-opacity:1" />
  </g>
  <g
     transform="translate(4728.6724,-2.2305367)"
     style="opacity:1"
     inkscape:label="Perisai"
     id="layer4"
     inkscape:groupmode="layer">
    <path
       sodipodi:nodetypes="ccccccccccccccccccccccccc"
       id="path1213"
       d="m -3211.5481,2743.989 c 166.9027,-43.99 417.9039,-212.1869 417.9039,-212.1869 -53.0465,78.9234 -209.5988,147.4959 -209.5988,147.4959 319.5737,-128.7351 498.4442,-381.0302 498.4442,-381.0302 -41.4018,125.5006 -243.2381,294.9912 -243.2381,294.9912 230.9469,-133.9105 349.7219,-409.4073 349.7219,-409.4073 -33.3931,84.1681 -158.7301,279.0351 -158.7301,279.0351 l 190.5217,-283.6098 c 54.4346,-76.3915 152.0966,-301.2206 152.0966,-301.2206 60.3812,-212.2495 151.8684,-991.71808 151.8684,-991.71808 -483.0505,268.97158 -1002.6968,-393.39366 -1002.6968,-393.39366 -596.4947,517.81574 -885.4898,366.06409 -885.4898,366.06409 0,0 -27.3647,138.30163 -7.3105,239.21935 0,0 -72.1915,-133.16909 -47.6087,-163.57383 0,0 -23.121,-13.81695 -11.2278,243.26123 0,0 34.4811,654.6261 92.1175,718.2095 0,0 -16.4677,-24.4727 -77.3064,-192.3513 0,0 30.6483,282.0086 129.4542,394.0799 0,0 24.5094,64.0002 108.6079,131.2791 0,0 89.9563,207.6501 203.8125,241.9364 0,0 184.0198,210.1696 321.8114,226.3425 0,0 -218.0087,-146.8487 -204.4234,-192.7795 0,0 188.2508,170.1376 230.9467,166.9033 0,0 22.642,1.2932 0.342,72.4536 z"
       style="fill:#efbd42;fill-opacity:1;stroke:none;stroke-width:9.05672px;stroke-linecap:butt;stroke-linejoin:miter;stroke-opacity:1" />
    <path
       sodipodi:nodetypes="cccccccccccccccsccccccc"
       id="path343"
       d="m -3185.3311,2569.0115 c -54.8923,-223.2282 93.3162,-353.5969 93.3162,-353.5969 124.4224,116.6459 79.5938,340.1027 79.5938,340.1027 185.7184,-17.3827 335.2995,-273.5458 335.2995,-273.5458 1.8281,44.8286 -26.5314,123.5074 -26.5314,123.5074 29.276,-41.6268 92.402,-140.204 92.402,-140.204 85.0828,-123.0496 214.5369,-346.2778 214.5369,-346.2778 95.1463,-158.7301 185.9469,-662.3652 185.9469,-662.3652 -57.6366,74.5615 -177.0267,79.3648 -177.0267,79.3648 76.3915,-45.7435 128.5389,-202.6436 128.5389,-202.6436 -124.4221,-102.4654 -302.1485,-145.51246 -302.1485,-145.51246 -230.2998,-69.86633 -540.8169,134.55716 -540.8169,134.55716 0,0 -256.1763,-219.94973 -368.7386,-225.12494 0,0 -124.005,-19.85442 -364.6157,110.97204 0,0 -24.7012,109.0982 103.8377,180.0004 0,0 -90.1145,38.4246 -195.7817,-10.0636 v 0 c 0,0 -52.1837,224.8021 25.1225,440.7113 0,0 -6.6749,96.021 94.4179,275.7927 0,0 -84.3517,19.6269 -99.4472,-41.6691 0,0 165.3963,328.3191 321.839,384.1263 0,0 -63.1261,19.2121 -106.5824,-30.1909 0,0 375.5539,376.926 506.8378,362.0595 z"
       style="fill:#f1e9de;fill-opacity:1;stroke:none;stroke-width:9.05672px;stroke-linecap:butt;stroke-linejoin:miter;stroke-opacity:1" />
    <path
       id="path1262"
       d="m -2277.9348,2056.6145 h -283.6098 v 69.53 h 272.631 z"
       style="fill:#f1e9de;fill-opacity:1;stroke:none;stroke-width:9.05672px;stroke-linecap:butt;stroke-linejoin:miter;stroke-opacity:1" />
    <path
       style="opacity:1;fill:#f1e9de;fill-opacity:1;stroke:none;stroke-width:9.05672px;stroke-linecap:butt;stroke-linejoin:miter;stroke-opacity:1"
       d="m -2131.8337,1727.8872 h -283.6095 v 69.5301 h 272.6311 z"
       id="path1262-6" />
    <path
       style="opacity:1;fill:#f1e9de;fill-opacity:1;stroke:none;stroke-width:9.05672px;stroke-linecap:butt;stroke-linejoin:miter;stroke-opacity:1"
       d="m -2080.3595,1477.1854 h -283.6096 v 69.5301 h 272.631 z"
       id="path1262-7" />
    <path
       style="opacity:1;fill:#f1e9de;fill-opacity:1;stroke:none;stroke-width:9.05672px;stroke-linecap:butt;stroke-linejoin:miter;stroke-opacity:1"
       d="m -3593.3628,2128.2733 h -283.6095 v 69.5301 h 272.6309 z"
       id="path1262-5" />
    <path
       style="opacity:1;fill:#f1e9de;fill-opacity:1;stroke:none;stroke-width:9.05672px;stroke-linecap:butt;stroke-linejoin:miter;stroke-opacity:1"
       d="m -3744.0126,1695.6989 h -283.6096 v 69.5303 h 272.6309 z"
       id="path1262-3" />
    <path
       style="opacity:1;fill:#f1e9de;fill-opacity:1;stroke:none;stroke-width:9.05672px;stroke-linecap:butt;stroke-linejoin:miter;stroke-opacity:1"
       d="m -3765.3582,1458.1307 h -283.6096 v 69.5301 h 272.631 z"
       id="path1262-2" />
  </g>
  <g
     transform="translate(4728.6724,-2.2305367)"
     style="display:inline;opacity:1;mix-blend-mode:normal"
     id="layer1"
     inkscape:groupmode="layer"
     inkscape:label="Layer 1">
    <path
       id="path317"
       d="m -2930.2936,1244.2379 c 2.1908,-2.7899 8.7219,-11.3374 14.5137,-18.9918 47.2222,-62.4091 59.2085,-130.3163 32.3724,-183.3989 -21.3183,-42.16814 -85.6238,-97.07503 -142.2292,-121.44228 -33.7266,-14.51798 -67.3106,-47.91908 -86.4954,-86.02363 -6.9292,-13.76243 -7.1808,-15.25044 -9.9229,-58.65535 -1.5468,-24.49383 -2.861,-49.78658 -2.923,-56.20573 -0.1328,-14.39559 -1.3781,-13.65233 -19.7407,11.78199 -29.4839,40.8414 -61.7099,100.71106 -75.7368,140.70542 -26.0544,74.28637 -36.1331,192.60088 -21.2358,249.29378 11.504,43.7794 25.8457,70.3236 65.3835,121.0154 l 4.1762,5.354 -5.2623,-1.6125 c -56.3724,-17.2824 -119.2292,-71.0893 -154.8086,-132.5205 -19.3997,-33.4956 -34.858,-79.1557 -40.6898,-120.1887 -4.2438,-29.86139 -1.4694,-97.99666 5.235,-128.55292 11.5393,-52.59546 24.7337,-89.69177 51.3821,-144.46592 24.9474,-51.27759 43.7625,-78.48143 90.4303,-130.74953 34.6629,-38.82207 66.7704,-93.35952 87.5184,-148.65629 12.8581,-34.26947 16.973,-53.15893 21.0059,-96.42241 3.7771,-40.525 5.2354,-128.57386 2.367,-142.83609 -1.0857,-5.3971 -0.8494,-8.14681 0.7089,-8.14681 3.6786,0 40.4218,36.3004 54.7101,54.05117 20.238,25.14099 49.4346,70.67003 58.5033,91.22944 16.2828,36.9154 25.9163,85.67574 26.5632,134.45449 l 0.3655,27.66203 -9.2822,23.31526 c -12.409,31.17146 -23.6044,72.791 -26.4538,98.34894 -2.6391,23.68782 -0.3767,44.25829 6.3141,57.37529 6.4041,12.55422 22.4865,29.08935 34.8217,35.80311 9.8669,5.37029 13.0627,6.02518 25.8638,5.3018 12.2684,-0.69524 16.1097,-1.93163 23.9997,-7.73321 11.4477,-8.41862 24.2962,-25.1647 33.7968,-44.04883 6.792,-13.49998 7.2353,-15.93584 10.0737,-55.39676 l 2.9677,-41.27589 14.2063,18.46551 c 24.2236,31.48534 36.6848,54.10781 53.2314,96.63396 5.1222,13.16415 11.9545,29.80072 15.1834,36.96966 10.2178,22.68679 26.4823,67.1025 33.5231,91.54628 11.3121,39.27325 15.2923,68.03633 15.2444,110.16137 -0.127,100.62205 -23.4936,168.01325 -81.5361,235.03285 -31.3318,36.1776 -51.1296,54.8798 -73.5052,69.4376 -16.5418,10.7625 -31.777,18.4603 -36.5356,18.4603 -1.1467,0 -0.3082,-2.283 1.8963,-5.0747 z"
       style="fill:#e15439;fill-opacity:1;stroke-width:2.17582;paint-order:fill markers stroke" />
  </g>
  <g
     transform="translate(4728.6724,-2.2305367)"
     style="display:inline;opacity:1"
     inkscape:label="Dasar"
     id="layer3"
     inkscape:groupmode="layer">
    <path
       sodipodi:nodetypes="ccccccccc"
       id="path369"
       d="m -3129.7022,2121.0952 c 54.6642,40.4324 102.6973,-0.9676 102.6973,-0.9676 l 7.4403,-452.9993 c 21.0245,-1.6145 24.2593,-3.2346 24.2593,-3.2346 24.2592,-7.4395 57.8983,-105.6079 57.8983,-105.6079 -50.1356,46.7391 -123.4386,74.1925 -160.2719,69.4214 -36.8337,-4.7709 -69.5431,-35.4591 -69.5431,-35.4591 0,0 14.5556,48.3567 37.1973,66.1468 z"
       style="fill:#986432;fill-opacity:1;stroke:none;stroke-width:15.9171;stroke-linecap:butt;stroke-linejoin:miter;stroke-miterlimit:4;stroke-dasharray:none;stroke-opacity:1" />
  </g>
  <g
     transform="translate(4728.6724,-2.2305367)"
     style="opacity:1"
     inkscape:label="Obor"
     id="layer5"
     inkscape:groupmode="layer">
    <path
       id="path360"
       d="m -2918.8008,1471.5559 c 128.0816,-36.5946 162.8463,-197.6118 162.8463,-197.6118 -340.3309,136.3158 -601.9837,3.6595 -601.9837,3.6595 0,0 47.5733,136.3158 132.6561,187.5485 z"
       style="fill:#986432;fill-opacity:1;stroke:none;stroke-width:15.9171;stroke-linecap:butt;stroke-linejoin:miter;stroke-miterlimit:4;stroke-dasharray:none;stroke-opacity:1" />
    <path
       sodipodi:nodetypes="ccscc"
       id="path362"
       d="m -3209.0857,1508.5355 283.6097,0.4588 c 0,0 -72.275,59.009 -125.3374,72.2747 -53.0622,13.2656 -97.4333,-24.9305 -97.4333,-24.9305 z"
       style="fill:#b75c35;fill-opacity:1;stroke:none;stroke-width:15.9171;stroke-linecap:butt;stroke-linejoin:miter;stroke-miterlimit:4;stroke-dasharray:none;stroke-opacity:1" />
    <path
       id="path1244"
       d="m -3118.3029,818.22503 c 53.9772,110.01222 105.8963,109.09816 105.8963,109.09816 99.9494,43.2274 137.1158,130.82631 137.1158,130.82631 31.5629,96.5185 -62.4181,197.1391 -62.4181,197.1391 88.7885,-17.4665 162.3265,-164.1534 162.3265,-164.1534 0,0 4.5283,-193.42613 -165.6089,-236.12217 -170.1373,-42.69611 -184.3693,-143.61383 -184.3693,-143.61383 0,0 1.6825,56.73681 7.0577,106.82583 z"
       style="fill:#d40000;stroke:none;stroke-width:9.05672px;stroke-linecap:butt;stroke-linejoin:miter;stroke-opacity:1" />
  </g>
  <g
     transform="translate(4728.6724,-2.2305367)"
     style="opacity:1"
     inkscape:label="Huruf"
     id="layer7"
     inkscape:groupmode="layer">
    <path
       sodipodi:nodetypes="cccccccccccccccccc"
       id="path1216"
       d="m -3731.401,1529.2642 133.5709,0.9153 -0.7936,42.7702 -58.5516,-2.7452 1.3722,264.6258 211.3349,-2.7452 v 52.605 h -213.1643 v 113.2154 h 53.2911 v 36.1371 h -157.3576 v -37.052 h 49.4031 v -428.6171 h -64.0409 v -40.7114 z"
       style="fill:#b75c35;fill-opacity:1;stroke:none;stroke-width:6.84603;stroke-linecap:butt;stroke-linejoin:miter;stroke-miterlimit:4;stroke-dasharray:none;stroke-opacity:1" />
    <path
       sodipodi:nodetypes="cccccccccccccccccc"
       style="fill:#b75c35;fill-opacity:1;stroke:none;stroke-width:6.84603;stroke-linecap:butt;stroke-linejoin:miter;stroke-miterlimit:4;stroke-dasharray:none;stroke-opacity:1"
       d="m -3411.6474,1531.1791 133.5709,0.9129 -0.7935,42.7705 -58.5516,-0.4588 c -0.3966,288.9301 -1.2522,283.8579 -0.4577,425.4139 h 53.2911 v 36.1371 h -157.3576 v -37.0522 h 49.4031 v -222.4279 l -218.6537,3.5456 10e-5,-50.9466 218.6537,-2.9165 v -155.8709 h -64.0409 v -40.7113 z"
       id="path1216-3" />
    <path
       sodipodi:nodetypes="cccccccccccccccccc"
       id="path1242"
       d="m -2493.6568,1938.624 c -146.8484,160.434 -324.4213,-6.829 -324.4213,-6.829 v -290.4625 c 33.6391,-137.792 164.9618,-139.0858 164.9618,-139.0858 134.5575,-7.7627 192.7796,126.1475 192.7796,126.1475 l 35.7883,-0.4588 0.4589,55.7449 -139.836,1.3736 -2.0582,-53.0071 37.7224,0.239 c 0,0 -114.6022,-111.6798 -190.9939,-4.6403 v 276.2905 c 0,0 68.1579,68.6152 165.5917,0.4588 l -29.2763,-19.8997 45.1036,-40.5108 103.2465,64.2371 -34.7173,43.6441 z"
       style="opacity:1;fill:#b75c35;fill-opacity:1;stroke:none;stroke-width:6.84603;stroke-linecap:butt;stroke-linejoin:miter;stroke-miterlimit:4;stroke-dasharray:none;stroke-opacity:1" />
  </g>
</svg>
